<svg width="71" height="47" viewBox="0 0 71 47" fill="none" xmlns="http://www.w3.org/2000/svg">
<g clip-path="url(#clip0_1_164)">
<path d="M7.50007 17.8098C8.00355 17.8098 8.48838 17.7866 8.95456 17.7449C9.11307 17.731 9.22961 17.5965 9.22961 17.4388V15.2821C9.22961 15.2172 9.16901 15.1662 9.10374 15.1754C8.55831 15.2496 8.01754 15.296 7.50007 15.296C5.09457 15.296 4.10626 13.7006 4.10626 12.8703C4.10626 12.0726 4.56778 11.6134 5.55609 11.3676L8.70282 10.6024C11.9101 9.83713 13.5744 8.60805 13.5744 5.90873C13.579 3.38565 11.8169 1.42377 7.80775 1.42377C3.55616 1.42377 0.470032 4.70748 0.470032 9.6145C0.470032 14.5261 2.87554 17.8098 7.50007 17.8098ZM3.4909 9.6145C3.4909 6.17773 5.15517 3.93757 7.80775 3.93757C9.5979 3.93757 10.4929 4.70285 10.4929 6.11744C10.4929 7.25375 9.5979 7.95873 7.77978 8.41789L5.09457 9.12287C4.38597 9.30839 3.83121 9.58667 3.4909 9.92061V9.6145Z" fill="#2D8228"/>
<path d="M38.1935 17.8047C42.6362 17.8047 45.2235 14.521 45.2235 9.61401C45.2235 4.70699 42.6362 1.42328 38.1935 1.42328C33.7508 1.42328 31.1634 4.70699 31.1634 9.61401C31.1634 14.5256 33.7508 17.8047 38.1935 17.8047ZM38.1935 3.93708C41.0325 3.93708 42.142 6.23754 42.142 9.61401C42.142 12.9904 41.0325 15.2909 38.1935 15.2909C35.3544 15.2909 34.2449 12.9904 34.2449 9.61401C34.2449 6.23754 35.3544 3.93708 38.1935 3.93708Z" fill="#2D8228"/>
<path d="M23.2879 35.9488C25.6561 35.9488 27.5954 35.471 29.0546 34.6733C29.1665 34.613 29.2364 34.4878 29.2364 34.3626V32.2801C29.2364 32.1734 29.1292 32.1038 29.0313 32.1456C27.3344 32.8969 25.1806 33.4349 23.2832 33.4349C20.8777 33.4349 19.8894 31.8395 19.8894 31.0093C19.8894 30.2115 20.3509 29.7524 21.3392 29.5066L24.486 28.7413C27.6933 27.976 29.3576 26.7469 29.3576 24.0476C29.3576 21.5338 27.6001 19.5673 23.5909 19.5673C19.3347 19.5673 16.2532 22.851 16.2532 27.758C16.2532 32.665 18.6587 35.9488 23.2879 35.9488ZM19.2787 27.7534C19.2787 24.3166 20.943 22.0764 23.5956 22.0764C25.3857 22.0764 26.2808 22.8417 26.2808 24.2563C26.2808 25.3926 25.3857 26.0976 23.5676 26.5568L20.8824 27.2618C20.1738 27.4473 19.619 27.7209 19.2787 28.0595V27.7534Z" fill="#2D8228"/>
<path d="M42.0079 27.4658V35.3504C42.0079 35.4849 42.1197 35.5963 42.2549 35.5963H44.749C44.8889 35.5963 45.0007 35.4849 45.0007 35.3458V26.4501C45.0007 24.5763 44.8469 23.2916 44.4134 22.3083C43.5183 20.2815 41.6069 19.5487 39.9706 19.5487C37.4719 19.5487 35.9242 20.5737 35.0384 22.1878C35.0058 22.2481 34.9172 22.2341 34.9032 22.1692L34.5303 20.1285C34.5116 20.0264 34.4184 19.9476 34.3112 19.9476H32.2506C32.1527 19.9476 32.0735 20.0264 32.0735 20.1238V35.3829C32.0735 35.4989 32.1667 35.5963 32.2879 35.5963H34.7867C34.9405 35.5963 35.0664 35.471 35.0664 35.318V27.6792C35.0664 23.8157 36.6095 22.2481 39.1362 22.2481C40.5254 22.2481 41.3552 22.953 41.6955 23.9966C41.9193 24.6737 42.0079 25.1329 42.0079 27.4658Z" fill="#2D8228"/>
<path d="M23.2815 17.8093C24.0181 17.8093 24.6195 17.7769 25.1929 17.6795C25.1882 17.6702 26.8525 17.5171 28.9736 16.4782C28.9736 16.4782 29.1414 16.3855 29.1414 16.1675V14.034C29.1414 13.9644 29.0668 13.9134 29.0016 13.9459C27.6776 14.5535 25.701 15.2955 23.2769 15.2955C20.5077 15.2955 19.4262 12.9951 19.4262 9.61865C19.4262 6.24218 20.5077 3.94172 23.2769 3.94172C23.4493 3.94172 23.6032 3.94636 23.757 3.95564V3.96027C24.5402 3.99274 25.5052 4.15507 26.2558 4.32204C26.321 4.33595 26.3676 4.38697 26.3816 4.45654C26.4469 4.85077 26.666 6.17261 26.666 6.17261C26.6753 6.2329 26.7266 6.27928 26.7919 6.27928L29.0156 6.28392C29.0855 6.28392 29.1414 6.22826 29.1414 6.15869V3.03731C29.1414 2.84715 29.1414 2.84715 29.0668 2.80077C26.9457 1.75722 25.1835 1.56242 25.1882 1.55778C25.1696 1.55314 25.1509 1.55314 25.1323 1.5485C25.1136 1.54387 25.095 1.54387 25.0763 1.53923C24.9271 1.51604 24.7733 1.49749 24.6148 1.48357C24.5635 1.47893 24.5169 1.4743 24.4656 1.46966C24.3304 1.46038 24.1859 1.45111 24.0414 1.44183C23.9901 1.43719 23.9388 1.43719 23.8829 1.43255C23.6964 1.42792 23.496 1.42328 23.2815 1.42328C23.109 1.42328 22.9459 1.43719 22.7827 1.44647C18.7549 1.69228 16.4193 4.90179 16.4193 9.61401C16.4193 14.5256 18.946 17.8093 23.2815 17.8093Z" fill="#2D8228"/>
<path d="M55.8942 32.9982C55.4746 33.1606 54.6308 33.36 53.9828 33.3925C53.9269 33.3971 53.8663 33.4017 53.8103 33.4017C51.9596 33.4017 51.6519 32.7895 51.6519 30.3963V22.4282C51.6519 22.3725 51.6985 22.3262 51.7545 22.3262H55.4373C55.4933 22.3262 55.5399 22.2798 55.5399 22.2241V20.0675C55.5399 20.0118 55.4933 19.9654 55.4373 19.9654H51.7545C51.6985 19.9654 51.6519 19.919 51.6519 19.8634V13.9221C51.6519 13.8618 51.596 13.8154 51.5354 13.82L48.7895 14.5297C48.7149 14.5482 48.6637 14.6178 48.6637 14.692V19.868C48.6637 19.9237 48.6171 19.9701 48.5611 19.9701H46.6078C46.5519 19.9701 46.5052 20.0164 46.5052 20.0721V22.2334C46.5052 22.2891 46.5519 22.3354 46.6078 22.3354H48.5611C48.6171 22.3354 48.6637 22.3818 48.6637 22.4375V30.8787C48.6637 31.1013 48.6823 31.3193 48.7103 31.5373C48.9527 34.3386 50.286 35.9248 53.3814 35.9248C53.5539 35.9248 53.7171 35.9156 53.8803 35.9063C53.9082 35.9063 53.9409 35.9063 53.9688 35.9063C54.738 35.8599 55.3907 35.73 55.7823 35.628C55.9315 35.5909 56.034 35.4518 56.034 35.3033V33.1049C56.034 33.0214 55.9641 32.9751 55.8942 32.9982Z" fill="#2D8228"/>
<path d="M11.6304 35.609L13.91 35.6137C13.98 35.6137 14.0406 35.558 14.0406 35.4838V18.1747V13.9356C14.0406 13.9031 14.0219 13.8753 13.9986 13.8567C13.9753 13.8289 13.9427 13.815 13.9054 13.8196L11.1596 14.5292C11.085 14.5478 11.0384 14.622 11.0384 14.7008L11.043 21.8898C11.043 21.9222 11.0011 21.9362 10.9871 21.9037C10.3857 20.721 8.82403 19.5986 6.97329 19.5986C2.53522 19.5986 0.470032 22.8777 0.470032 27.7893C0.470032 32.6963 2.53522 35.9801 6.97795 35.9801C8.92193 35.9801 10.2086 35.1174 11.1596 33.7724C11.1782 33.7492 11.2108 33.7538 11.2155 33.7863L11.5045 35.5023C11.5139 35.5626 11.5651 35.609 11.6304 35.609ZM7.28563 33.4663C4.44657 33.4663 3.5515 31.1658 3.5515 27.7893C3.5515 24.4129 4.44657 22.2052 7.28563 22.2052C10.1247 22.2052 11.0477 24.4129 11.0477 27.7893C11.0477 31.1658 10.1247 33.4663 7.28563 33.4663Z" fill="#2D8228"/>
<path d="M67.1009 34.0745L67.3246 35.2943C67.3573 35.4752 67.5158 35.605 67.7022 35.605H69.5716C69.7767 35.605 69.9446 35.4381 69.9446 35.234V25.1463C69.9446 21.0371 67.8467 19.5946 64.1453 19.5946C62.3831 19.5946 60.3365 19.9007 58.9753 20.5686C58.8541 20.6289 58.7795 20.7541 58.7795 20.8933V22.9479C58.7795 23.0639 58.896 23.1427 59.0033 23.101C60.4111 22.5815 62.3877 22.1131 64.1453 22.1131C66.1172 22.1131 66.9517 22.9433 66.9517 23.9822C66.9517 24.9052 66.397 25.3319 64.8213 25.791L62.2013 26.5285C59.0639 27.4004 57.7819 28.8428 57.4882 30.5821C57.008 33.4159 59.3343 35.9622 62.2199 35.9158C63.9308 35.888 65.4646 35.554 66.961 34.0374C67.0076 33.991 67.0869 34.0096 67.1009 34.0745ZM62.8073 33.402C61.4694 33.4113 60.3878 32.2935 60.4811 30.9624C60.5417 30.0673 60.9845 29.3252 63.0917 28.7083L65.651 27.9709C66.2104 27.7993 66.4856 27.6323 66.742 27.4143C66.8212 27.3447 66.947 27.405 66.947 27.5117V30.1183C66.947 31.9457 65.4879 33.3788 62.8073 33.402Z" fill="#2D8228"/>
</g>
<defs>
<clipPath id="clip0_1_164">
<rect width="70" height="46" fill="white" transform="translate(0.386047 0.741638)"/>
</clipPath>
</defs>
</svg>
